<svg width="230.00000000000003" height="310.00000000000006" xmlns="http://www.w3.org/2000/svg" xmlns:svg="http://www.w3.org/2000/svg">
  <circle fill="#ffffff" stroke="#000000" stroke-width="5" cx="106.68036" cy="120.80362" r="15" id="glowa" class="glowa"/>
  <line fill="none" stroke-width="5" stroke-dasharray="null" stroke-linejoin="null" stroke-linecap="null" x1="107.5241" y1="147.58487" x2="108.36785" y2="195.80362" id="tlow" class="tlow" stroke="#000000"/>
  <line fill="none" stroke-width="5" stroke-dasharray="null" stroke-linejoin="null" stroke-linecap="null" x1="138.2897" y1="168.52241" x2="106.7741" y2="148.55362" id="prawa_reka" stroke="#000000" class="prawa_reka"/>
  <line fill="none" stroke-width="5" stroke-dasharray="null" stroke-linejoin="null" stroke-linecap="null" x1="107.1022" y1="149.49116" x2="76.0397" y2="167.77241" id="lewa_reka" stroke="#000000" class="lewa_reka"/>
  <line fill="none" stroke-width="5" stroke-dasharray="null" stroke-linejoin="null" stroke-linecap="null" x1="107.73501" y1="195.47553" x2="76.46158" y2="220.77241" stroke="#000000" id="lewa_noga" class="lewa_noga"/>
  <line fill="none" stroke="#000000" stroke-width="5" stroke-dasharray="null" stroke-linejoin="null" stroke-linecap="null" x1="139.46158" y1="220.77241" x2="107.94595" y2="194.63178" id="prawa_noga" class="prawa_noga"/>
  <line fill="none" stroke="#000000" stroke-width="5" stroke-dasharray="null" stroke-linejoin="null" stroke-linecap="null" x1="107.735" y1="148.22555" x2="107.10219" y2="134.93649" id="szyja" class="szyja"/>
  <circle id="svg_2" r="6.40312" cy="118" cx="100" stroke-linecap="null" stroke-linejoin="null" stroke-dasharray="null" stroke-width="5" stroke="#000000" fill="#ffffff"/>
  <circle id="svg_3" r="6.40312" cy="118" cx="114" stroke-linecap="null" stroke-linejoin="null" stroke-dasharray="null" stroke-width="5" stroke="#000000" fill="#ffffff"/>
  <path d="m98.0802,109.06023c0.84949,0.0283 1.74516,-0.02194 2.65353,0.00572c0.876,0.02668 1.78169,0.04032 2.66994,0.1981c0.86217,0.15315 1.70629,0.31168 2.56876,0.59708c0.84033,0.27807 1.69463,0.46351 2.541,0.66074c0.86551,0.20169 1.7282,0.39195 2.61148,0.44095c0.81759,0.04535 1.61182,-0.24432 2.35279,-0.60099l0.82079,-0.20036l0.77248,-0.30875" id="svg_12" stroke-linecap="null" stroke-linejoin="null" stroke-dasharray="null" stroke-width="5" stroke="#000000" fill="none"/>
  <rect fill="#000000" stroke-width="5" stroke-dasharray="null" stroke-linejoin="null" stroke-linecap="null" x="17.80151" y="225.11613" width="197.01563" height="67.5" id="podest" stroke="#000000" class="podest"/>
  <text fill="#ffffff" stroke-width="0" stroke-dasharray="null" stroke-linejoin="null" stroke-linecap="null" x="57.74298" y="245.75492" id="svg_4" font-size="24" font-family="serif" text-anchor="middle" xml:space="preserve" transform="matrix(1.2029415636716594,0,0,1.380245477355032,48.042142884350135,-68.4685231218778) " stroke="#ffffff">WYGRAŁEŚ !!!</text>
  <path stroke="#ffffff" id="svg_6" d="m53.41768,33.87174c-9.55489,0 -17.29325,7.62279 -17.29325,17.03498c0,9.4057 7.73836,17.03282 17.29325,17.03282c9.5461,0 17.28886,-7.62712 17.28886,-17.03282c0.0022,-9.41219 -7.73836,-17.03498 -17.28886,-17.03498zm0,29.74252c-7.12553,-0.01731 -12.88483,-5.69059 -12.9024,-12.70537c0.01538,-7.01695 5.77686,-12.69239 12.9024,-12.7097c7.12114,0.01731 12.88043,5.69275 12.89581,12.7097c-0.01538,7.01479 -5.77467,12.68806 -12.89581,12.70537zm0,-30.8828c1.21468,0 2.19653,-0.96935 2.19653,-2.16589l0,-10.49621c-0.00439,-1.19654 -0.98404,-2.16372 -2.19653,-2.16372c-1.21468,0 -2.19872,0.97151 -2.19653,2.16805l0,10.49405c0,1.19221 0.98185,2.16372 2.19653,2.16372zm7.05744,1.38045c0.27457,0.11468 0.56011,0.16444 0.83907,0.16661c0.86543,0 1.68034,-0.50415 2.03179,-1.33718l4.07675,-9.69996c0.46127,-1.10566 -0.06809,-2.36928 -1.18832,-2.82582c-1.12243,-0.45655 -2.40739,0.06708 -2.87306,1.17057l-4.07456,9.70213c-0.46347,1.1035 0.06809,2.36928 1.18832,2.82366zm5.98553,3.94014c0.42832,0.41976 0.99063,0.63397 1.55294,0.63397s1.12462,-0.21204 1.55294,-0.63397l7.53409,-7.42806c0.85884,-0.84385 0.85665,-2.21349 0,-3.06167c-0.86104,-0.84385 -2.25144,-0.84385 -3.10809,0.00433l-7.53189,7.42373c-0.85884,0.84602 -0.85884,2.21565 0,3.06167zm4.00427,5.89398c0.34705,0.83303 1.16636,1.33502 2.02739,1.33502c0.27896,0 0.56451,-0.05409 0.84127,-0.16877l9.84044,-4.01803c1.12243,-0.45655 1.65398,-1.72449 1.18832,-2.82798s-1.74844,-1.62712 -2.87086,-1.16841l-9.84264,4.01803c-1.12023,0.45871 -1.64959,1.72665 -1.18393,2.83015zm14.25326,4.78399l-10.65535,0.00216c-1.21248,0 -2.19653,0.96935 -2.19213,2.16589c0,1.19654 0.98185,2.16156 2.19213,2.16156l10.65755,-0.00433c1.21468,0 2.19433,-0.97151 2.19433,-2.16372c0,-1.19654 -0.98404,-2.16589 -2.19653,-2.16156zm-1.53318,11.96105l-9.84483,-4.01154c-1.12462,-0.45871 -2.40959,0.06491 -2.87086,1.17057c-0.46347,1.10566 0.06809,2.37144 1.18832,2.83015l9.84483,4.01154c0.27676,0.11035 0.56231,0.16228 0.84127,0.16228c0.86323,0 1.68034,-0.50198 2.03179,-1.33502c0.46127,-1.10566 -0.07249,-2.3736 -1.19052,-2.82798zm-13.60529,3.05734c-0.85884,-0.84602 -2.24705,-0.84602 -3.10589,0.00216c-0.85884,0.84385 -0.85665,2.21132 0,3.05734l7.54287,7.4194c0.42832,0.42193 0.98844,0.63397 1.55075,0.63397s1.12682,-0.21204 1.55514,-0.63397c0.85884,-0.84818 0.85445,-2.21781 0,-3.06167l-7.54287,-7.41724zm-6.21837,5.11287c-0.46347,-1.10566 -1.74844,-1.62712 -2.87086,-1.17057c-1.12023,0.45871 -1.65179,1.72449 -1.18612,2.83015l4.08554,9.69347c0.34925,0.83303 1.16636,1.33502 2.03179,1.33502c0.28116,0 0.5667,-0.05193 0.84127,-0.16444c1.12243,-0.45655 1.65179,-1.72449 1.18612,-2.83231l-4.08774,-9.69131zm-9.92171,0.22286c-1.21468,0 -2.19653,0.96935 -2.19653,2.16372l0.00879,10.49621c0,1.19654 0.98624,2.16156 2.19653,2.16156c1.21468,0 2.19653,-0.96935 2.19213,-2.16372l-0.00659,-10.49838c0,-1.19005 -0.98624,-2.16156 -2.19433,-2.15939zm-7.06403,-1.37613c-1.12023,-0.45438 -2.403,0.06708 -2.86866,1.1749l-4.06797,9.69996c-0.46127,1.10566 0.07249,2.37144 1.19271,2.82798c0.27457,0.11251 0.55792,0.16444 0.83907,0.16444c0.86104,0 1.68034,-0.50631 2.02959,-1.33934l4.07016,-9.70429c0.46347,-1.1035 -0.07249,-2.36711 -1.19491,-2.82366zm-5.98773,-3.93148c-0.86104,-0.84602 -2.25144,-0.84169 -3.10809,0.00433l-7.5253,7.42806c-0.85884,0.84818 -0.85445,2.21349 0.00439,3.06167c0.42832,0.41976 0.98844,0.63181 1.55075,0.63181c0.56451,0 1.12682,-0.21204 1.55514,-0.63397l7.5275,-7.43022c0.85445,-0.84602 0.85445,-2.21565 -0.00439,-3.06167zm-4.00646,-5.88749c-0.46786,-1.10133 -1.75063,-1.62495 -2.87086,-1.16841l-9.83824,4.02669c-1.12243,0.45871 -1.65179,1.72665 -1.18612,2.83015c0.35144,0.83303 1.16636,1.33285 2.02959,1.33285c0.27896,0 0.5667,-0.05193 0.84127,-0.16444l9.83824,-4.02669c1.11803,-0.46304 1.64959,-1.72881 1.18612,-2.83015zm-1.41896,-6.94987c0,-1.19654 -0.98185,-2.16156 -2.19653,-2.16156l-10.65535,0.01298c-1.21468,0 -2.19872,0.96935 -2.19433,2.16589c0.0022,1.19221 0.98624,2.16372 2.19653,2.15939l10.65755,-0.01298c1.21248,0 2.19653,-0.97367 2.19213,-2.16372zm-11.32529,-9.78651l9.85142,4.00289c0.27457,0.11468 0.55792,0.16444 0.83688,0.16444c0.86323,0 1.68254,-0.50198 2.03179,-1.33718c0.46566,-1.10566 -0.07029,-2.3736 -1.19491,-2.82582l-9.84703,-4.00289c-1.12243,-0.45438 -2.4052,0.06924 -2.86866,1.17274c-0.46566,1.10566 0.07249,2.36711 1.19052,2.82582zm13.60309,-3.06816c0.42832,0.4176 0.98624,0.62964 1.54855,0.62964s1.12682,-0.21204 1.55734,-0.6383c0.85884,-0.84169 0.85445,-2.21349 -0.00879,-3.0595l-7.54287,-7.40858c-0.85665,-0.84385 -2.25144,-0.83952 -3.10589,0.00649c-0.85884,0.84385 -0.85445,2.21565 0.00439,3.0595l7.54727,7.41075zm6.20958,-5.12153c0.35144,0.83087 1.16855,1.33069 2.02739,1.33069c0.28116,0 0.5667,-0.05409 0.84347,-0.16661c1.12023,-0.45871 1.65398,-1.72665 1.18612,-2.82798l-4.09433,-9.69131c-0.46566,-1.1035 -1.75283,-1.62495 -2.87306,-1.16625c-1.12023,0.46087 -1.64959,1.72881 -1.18393,2.83015l4.09433,9.69131z" stroke-linecap="null" stroke-linejoin="null" stroke-dasharray="null" stroke-width="0" fill="#000000"/>
  <path stroke="#ffffff" id="svg_8" d="m195.03218,25.20637c-6.75236,0 -12.54819,3.67082 -15.38515,8.97017c-1.13307,-0.66312 -2.38284,-1.06464 -3.71664,-1.06464c-4.03345,0 -7.38986,3.40144 -8.42726,8.01879c-1.7707,-0.73369 -3.82954,-1.1779 -6.02873,-1.1779c-6.59759,0 -11.94942,3.78411 -11.94942,8.44917c0,4.21101 4.38921,7.67285 10.0911,8.31326c-0.25555,0.45453 -0.45378,0.90464 -0.45378,1.38177c0,4.46655 11.67327,8.10939 26.05967,8.10939c14.3864,0 26.05969,-3.64284 26.05967,-8.10939c0,-0.30053 -0.17794,-0.56872 -0.28091,-0.86077c0.63013,0.16427 1.25404,0.33978 1.94475,0.33978c3.84858,0.00001 6.9795,-2.7413 6.9795,-6.11602c0,-3.37473 -3.13092,-6.11602 -6.9795,-6.11602c-0.47163,0 -0.87267,0.17078 -1.31811,0.24917c0.38949,-1.34939 0.64825,-2.72626 0.64825,-4.19061c0,-8.93309 -7.71362,-16.19613 -17.24346,-16.19613l0,0z" stroke-linecap="null" stroke-linejoin="null" stroke-dasharray="null" stroke-width="0" fill="#000000"/>
  <path stroke="#ffffff" id="svg_9" d="m126.20996,19.27344c-3.74065,0 -6.95141,2.05924 -8.52302,5.03204c-0.62769,-0.37199 -1.32004,-0.59724 -2.05893,-0.59724c-2.23444,0 -4.09381,1.90813 -4.66851,4.49834c-0.98093,-0.41158 -2.12148,-0.66077 -3.33978,-0.66077c-3.65491,0 -6.61971,2.12279 -6.61971,4.73978c0,2.36228 2.43152,4.30428 5.59024,4.66354c-0.14157,0.25498 -0.25138,0.50748 -0.25138,0.77514c0,2.50562 6.46673,4.54917 14.43647,4.54917c7.96974,0 14.43647,-2.04355 14.43647,-4.54917c0,-0.16859 -0.09857,-0.31904 -0.15562,-0.48287c0.34908,0.09215 0.69471,0.19061 1.07735,0.19061c2.13203,0.00001 3.86648,-1.5378 3.86648,-3.43094c0,-1.89314 -1.73446,-3.43094 -3.86648,-3.43094c-0.26127,0 -0.48344,0.0958 -0.7302,0.13978c0.21577,-0.75697 0.35911,-1.52936 0.35911,-2.35083c0,-5.01125 -4.27317,-9.08563 -9.55248,-9.08563l0,0z" stroke-linecap="null" stroke-linejoin="null" stroke-dasharray="null" stroke-width="0" fill="#000000"/>
  <path stroke="#ffffff" id="svg_13" d="m145.24587,53.5c-2.78152,0 -5.16901,1.70111 -6.33764,4.1569c-0.46674,-0.3073 -0.98156,-0.49337 -1.531,-0.49337c-1.66151,0 -3.04412,1.57628 -3.47146,3.71603c-0.7294,-0.34 -1.5775,-0.54586 -2.48343,-0.54586c-2.71775,0 -4.92234,1.75362 -4.92234,3.91547c0,1.95145 1.80805,3.55572 4.15685,3.85249c-0.10527,0.21064 -0.18692,0.41922 -0.18692,0.64033c0,2.06986 4.80859,3.75801 10.7348,3.75801c5.92622,0 10.73482,-1.68815 10.73481,-3.75801c0,-0.13927 -0.0733,-0.26355 -0.11572,-0.3989c0.25957,0.07613 0.51658,0.15746 0.80111,0.15746c1.58536,0.00001 2.87508,-1.27036 2.87508,-2.83425c0,-1.5639 -1.28972,-2.83425 -2.87508,-2.83425c-0.19428,0 -0.35948,0.07915 -0.54297,0.11547c0.16044,-0.62532 0.26703,-1.26338 0.26703,-1.94199c0,-4.13972 -3.17749,-7.50552 -7.10313,-7.50552l0,0z" stroke-linecap="null" stroke-linejoin="null" stroke-dasharray="null" stroke-width="0" fill="#000000"/>
</svg>